<svg width="134" height="44" viewBox="0 0 134 44" fill="none" xmlns="http://www.w3.org/2000/svg">
<path d="M40.016 12.2C42.576 12.2 44.552 12.896 45.944 14.288C47.352 15.664 48.056 17.624 48.056 20.168C48.056 21.912 47.72 23.456 47.048 24.8C46.392 26.128 45.456 27.16 44.24 27.896C43.024 28.632 41.624 29 40.04 29H34.304C33.68 29 33.368 28.728 33.368 28.184V27.368C33.368 26.824 33.68 26.552 34.304 26.552H34.832V14.648H34.304C33.68 14.648 33.368 14.376 33.368 13.832V13.016C33.368 12.472 33.68 12.2 34.304 12.2H40.016ZM39.848 26.552C41.512 26.552 42.808 26.008 43.736 24.92C44.664 23.816 45.128 22.264 45.128 20.264C45.128 18.376 44.688 16.968 43.808 16.04C42.944 15.112 41.632 14.648 39.872 14.648H37.712V26.552H39.848ZM53.5164 14.912C52.9724 14.912 52.5164 14.736 52.1484 14.384C51.7804 14.016 51.5964 13.56 51.5964 13.016C51.5964 12.472 51.7804 12.016 52.1484 11.648C52.5164 11.28 52.9724 11.096 53.5164 11.096C54.0604 11.096 54.5164 11.28 54.8844 11.648C55.2524 12.016 55.4364 12.472 55.4364 13.016C55.4364 13.56 55.2524 14.016 54.8844 14.384C54.5164 14.736 54.0604 14.912 53.5164 14.912ZM51.9804 29C51.3564 29 51.0444 28.728 51.0444 28.184V27.368C51.0444 26.824 51.3564 26.552 51.9804 26.552H52.5084V19.448H51.9804C51.3564 19.448 51.0444 19.176 51.0444 18.632V17.816C51.0444 17.272 51.3564 17 51.9804 17H54.3324C54.6204 17 54.8604 17.104 55.0524 17.312C55.2604 17.504 55.3644 17.736 55.3644 18.008V26.552H55.8684C56.4924 26.552 56.8044 26.824 56.8044 27.368V28.184C56.8044 28.728 56.4924 29 55.8684 29H51.9804ZM71.1416 26.552C71.7656 26.552 72.0776 26.824 72.0776 27.368V28.184C72.0776 28.728 71.7656 29 71.1416 29H68.7896C68.5176 29 68.2776 28.904 68.0696 28.712C67.8776 28.504 67.7816 28.264 67.7816 27.992V26.72C67.4776 27.456 66.9736 28.064 66.2696 28.544C65.5656 29.008 64.8056 29.24 63.9896 29.24C63.0296 29.24 62.1896 28.992 61.4696 28.496C60.7656 28 60.2136 27.304 59.8136 26.408C59.4296 25.496 59.2376 24.432 59.2376 23.216C59.2376 21.184 59.7096 19.6 60.6536 18.464C61.5976 17.328 62.9016 16.76 64.5656 16.76C65.2056 16.76 65.8056 16.896 66.3656 17.168C66.9256 17.44 67.3976 17.832 67.7816 18.344V13.688H67.2776C66.6536 13.688 66.3416 13.416 66.3416 12.872V12.056C66.3416 11.512 66.6536 11.24 67.2776 11.24H69.6296C69.9176 11.24 70.1576 11.344 70.3496 11.552C70.5416 11.744 70.6376 11.976 70.6376 12.248V26.552H71.1416ZM64.8056 26.84C65.3496 26.84 65.8456 26.68 66.2936 26.36C66.7576 26.04 67.1176 25.608 67.3736 25.064C67.6456 24.504 67.7816 23.896 67.7816 23.24V20.552C67.4136 20.104 66.9896 19.76 66.5096 19.52C66.0296 19.28 65.5176 19.16 64.9736 19.16C64.0616 19.16 63.3576 19.512 62.8616 20.216C62.3816 20.904 62.1416 21.904 62.1416 23.216C62.1416 24.368 62.3736 25.264 62.8376 25.904C63.3016 26.528 63.9576 26.84 64.8056 26.84ZM83.0021 24.92C83.3381 24.92 83.6261 25.024 83.8661 25.232C84.1061 25.424 84.2261 25.664 84.2261 25.952C84.2261 26.272 84.1141 26.616 83.8901 26.984C83.4741 27.656 82.9941 28.2 82.4501 28.616C81.9061 29.032 81.2261 29.24 80.4101 29.24C78.9861 29.24 77.9061 28.832 77.1701 28.016C76.4501 27.2 76.0901 25.984 76.0901 24.368V19.4H74.8661C74.5621 19.4 74.3141 19.312 74.1221 19.136C73.9461 18.96 73.8581 18.728 73.8581 18.44V17.96C73.8581 17.672 73.9461 17.44 74.1221 17.264C74.3141 17.088 74.5621 17 74.8661 17H76.0901V14.816C76.0901 14.512 76.1781 14.272 76.3541 14.096C76.5461 13.904 76.7861 13.808 77.0741 13.808H77.9621C78.2501 13.808 78.4821 13.904 78.6581 14.096C78.8501 14.272 78.9461 14.512 78.9461 14.816V17H81.7781C82.0821 17 82.3221 17.088 82.4981 17.264C82.6901 17.44 82.7861 17.672 82.7861 17.96V18.44C82.7861 18.728 82.6901 18.96 82.4981 19.136C82.3221 19.312 82.0821 19.4 81.7781 19.4H78.9461V24.608C78.9461 25.328 79.0821 25.88 79.3541 26.264C79.6261 26.648 80.0101 26.84 80.5061 26.84C80.9061 26.84 81.2181 26.744 81.4421 26.552C81.6661 26.344 81.8981 26 82.1381 25.52C82.2661 25.296 82.3861 25.144 82.4981 25.064C82.6261 24.968 82.7941 24.92 83.0021 24.92ZM98.7824 26.552C99.4064 26.552 99.7184 26.824 99.7184 27.368V28.184C99.7184 28.728 99.4064 29 98.7824 29H94.8944C94.2704 29 93.9584 28.728 93.9584 28.184V27.368C93.9584 26.824 94.2704 26.552 94.8944 26.552H95.4224V22.568C95.4224 21.32 95.2704 20.44 94.9664 19.928C94.6624 19.416 94.1504 19.16 93.4304 19.16C92.9184 19.16 92.4224 19.328 91.9424 19.664C91.4784 20 91.1024 20.44 90.8144 20.984C90.5424 21.528 90.4064 22.096 90.4064 22.688V26.552H90.9104C91.5344 26.552 91.8464 26.824 91.8464 27.368V28.184C91.8464 28.728 91.5344 29 90.9104 29H87.0224C86.3984 29 86.0864 28.728 86.0864 28.184V27.368C86.0864 26.824 86.3984 26.552 87.0224 26.552H87.5504V13.688H87.0224C86.3984 13.688 86.0864 13.416 86.0864 12.872V12.056C86.0864 11.512 86.3984 11.24 87.0224 11.24H89.3744C89.6624 11.24 89.9024 11.344 90.0944 11.552C90.3024 11.744 90.4064 11.976 90.4064 12.248V19.496C90.7424 18.696 91.2624 18.04 91.9664 17.528C92.6704 17.016 93.4144 16.76 94.1984 16.76C95.5264 16.76 96.5344 17.2 97.2224 18.08C97.9264 18.944 98.2784 20.2 98.2784 21.848V26.552H98.7824ZM104.444 14.912C103.9 14.912 103.444 14.736 103.076 14.384C102.708 14.016 102.524 13.56 102.524 13.016C102.524 12.472 102.708 12.016 103.076 11.648C103.444 11.28 103.9 11.096 104.444 11.096C104.988 11.096 105.444 11.28 105.812 11.648C106.18 12.016 106.364 12.472 106.364 13.016C106.364 13.56 106.18 14.016 105.812 14.384C105.444 14.736 104.988 14.912 104.444 14.912ZM102.908 29C102.284 29 101.972 28.728 101.972 28.184V27.368C101.972 26.824 102.284 26.552 102.908 26.552H103.436V19.448H102.908C102.284 19.448 101.972 19.176 101.972 18.632V17.816C101.972 17.272 102.284 17 102.908 17H105.26C105.548 17 105.788 17.104 105.98 17.312C106.188 17.504 106.292 17.736 106.292 18.008V26.552H106.796C107.42 26.552 107.732 26.824 107.732 27.368V28.184C107.732 28.728 107.42 29 106.796 29H102.908ZM115.853 21.752C117.373 22.184 118.445 22.688 119.069 23.264C119.693 23.824 120.005 24.584 120.005 25.544C120.005 26.248 119.797 26.88 119.381 27.44C118.965 28 118.381 28.44 117.629 28.76C116.893 29.08 116.037 29.24 115.061 29.24C113.541 29.24 112.333 28.976 111.437 28.448C110.541 27.92 110.093 27.224 110.093 26.36C110.093 25.864 110.245 25.464 110.549 25.16C110.853 24.84 111.253 24.68 111.749 24.68C112.197 24.68 112.573 24.84 112.877 25.16C113.197 25.464 113.357 25.848 113.357 26.312C113.357 26.504 113.317 26.696 113.237 26.888C113.605 27.16 114.197 27.296 115.013 27.296C115.701 27.296 116.229 27.176 116.597 26.936C116.965 26.696 117.149 26.368 117.149 25.952C117.149 25.536 117.005 25.216 116.717 24.992C116.445 24.768 115.877 24.536 115.013 24.296C113.813 23.96 112.877 23.616 112.205 23.264C111.533 22.912 111.053 22.512 110.765 22.064C110.477 21.6 110.333 21.032 110.333 20.36C110.333 19.656 110.541 19.032 110.957 18.488C111.373 17.944 111.949 17.52 112.685 17.216C113.437 16.912 114.293 16.76 115.253 16.76C116.661 16.76 117.773 17.008 118.589 17.504C119.421 17.984 119.837 18.648 119.837 19.496C119.837 19.992 119.685 20.392 119.381 20.696C119.093 21 118.693 21.152 118.181 21.152C117.733 21.152 117.349 21 117.029 20.696C116.725 20.376 116.573 19.992 116.573 19.544C116.573 19.336 116.605 19.168 116.669 19.04C116.381 18.816 115.885 18.704 115.181 18.704C114.573 18.704 114.085 18.832 113.717 19.088C113.365 19.344 113.189 19.68 113.189 20.096C113.189 20.448 113.365 20.736 113.717 20.96C114.085 21.184 114.797 21.448 115.853 21.752Z" fill="#FFFCE3"/>
<g clip-path="url(#clip0_1321_19263)">
<circle cx="16" cy="19.8931" r="13" fill="#FFF1A6"/>
<path d="M9.93516 15.5598L12.1018 14.6931L13.4018 12.9598L13.8352 12.0931L14.7018 11.6598L15.1352 10.7931L15.5685 9.4931L16.8685 8.62643L17.3018 7.75977H18.6018H19.4685V9.05977V9.92643L20.3352 9.4931H21.2018L22.0685 10.3598L21.6352 11.2264L20.3352 12.5264L18.1685 13.8264L16.0018 15.1264L15.1352 15.9931L16.4352 16.8598L16.8685 19.0264L17.7352 19.4598L18.1685 16.8598L19.0352 15.5598L19.9018 14.2598L20.7685 12.9598L22.0685 12.5264L23.3685 12.9598L24.2352 14.2598L22.0685 16.4264L21.6352 18.1598L20.7685 21.1931L21.2018 22.9264L20.7685 23.7931V26.3931L19.4685 27.6931L18.6018 28.9931L17.3018 29.8598L16.4352 31.5931L16.0018 33.7598L14.2685 34.1931L11.6685 33.3264L10.3685 32.0264L9.93516 30.7264L8.20182 29.4264L7.33516 24.2264L6.90182 20.7598L6.03516 19.0264L6.46849 18.1598L6.90182 17.2931L7.76849 16.4264L9.93516 15.5598Z" fill="white"/>
<path fill-rule="evenodd" clip-rule="evenodd" d="M20.734 9.94697C20.454 9.97129 20.1517 10.0849 19.7431 10.2695C19.5731 10.3463 19.4028 10.4212 19.2334 10.4957C18.6489 10.7529 18.0749 11.0054 17.5595 11.3145C16.492 11.9546 15.2719 12.4226 14.0615 12.7262C13.9514 12.7538 13.8245 12.8299 13.6805 12.9745C13.5375 13.1182 13.3976 13.3092 13.2596 13.5304C13.1221 13.7506 12.9951 13.9865 12.872 14.2171C12.8642 14.2317 12.8564 14.2464 12.8486 14.2611C12.737 14.4705 12.6245 14.6815 12.5176 14.8495C12.3991 15.0355 12.1532 15.0897 11.9683 14.9705C11.7834 14.8514 11.7295 14.604 11.8479 14.418C11.9376 14.2772 12.0362 14.0922 12.1547 13.8701L12.1714 13.8388C12.2935 13.6098 12.4324 13.3513 12.5861 13.105C12.7392 12.8597 12.9157 12.6123 13.1186 12.4084C13.3207 12.2055 13.5693 12.0251 13.8691 11.9499C15.0191 11.6616 16.1638 11.22 17.1524 10.6273C17.7151 10.2899 18.3513 10.0102 18.9429 9.75017C19.1052 9.67881 19.2642 9.60892 19.4174 9.53973C19.8263 9.35497 20.238 9.1871 20.6656 9.14996C21.1149 9.11095 21.5521 9.21725 22.0152 9.51563C22.2407 9.66087 22.4159 9.84398 22.5123 10.0716C22.6102 10.3025 22.6099 10.5387 22.5538 10.7558C22.4482 11.1649 22.1357 11.5442 21.8148 11.8557C21.244 12.4096 20.4606 12.9191 20.0304 13.1989C19.9665 13.2405 19.9104 13.277 19.8639 13.3078C19.8267 13.3324 19.7895 13.3571 19.7522 13.3818C19.3957 13.6181 19.0349 13.8572 18.6927 14.1033C18.4363 14.2877 18.0256 14.4786 17.6623 14.6474C17.643 14.6564 17.6238 14.6653 17.6048 14.6741C17.1929 14.8658 16.8508 15.0294 16.6753 15.1643C16.4062 15.3711 16.3307 15.4749 16.2706 15.5805C16.2443 15.6269 16.2228 15.6702 16.1939 15.7284C16.1778 15.7608 16.1595 15.7978 16.1367 15.8425C16.0777 15.9584 16.0028 16.0971 15.8924 16.2705C15.774 16.4566 15.5281 16.5108 15.3432 16.3916C15.1582 16.2725 15.1043 16.0251 15.2228 15.8391C15.3162 15.6923 15.3785 15.577 15.429 15.4778C15.4422 15.4518 15.456 15.424 15.4702 15.3954C15.5053 15.3249 15.5428 15.2494 15.5803 15.1834C15.7078 14.9593 15.8665 14.7792 16.1925 14.5286C16.4522 14.329 16.887 14.1267 17.2615 13.9525L17.271 13.948C17.6829 13.7564 18.0368 13.5916 18.2303 13.4525C18.5856 13.197 18.9592 12.9494 19.3137 12.7145C19.3514 12.6895 19.3889 12.6646 19.4262 12.6399C19.4796 12.6045 19.5411 12.5644 19.6092 12.52C20.0475 12.2342 20.7538 11.7738 21.2627 11.2799C21.5635 10.9881 21.7367 10.7383 21.7841 10.5548C21.8045 10.4756 21.7975 10.4247 21.7808 10.3854C21.7628 10.3428 21.7157 10.2726 21.5863 10.1893C21.2566 9.97682 20.9923 9.92454 20.734 9.94697Z" fill="#42370E"/>
<path fill-rule="evenodd" clip-rule="evenodd" d="M13.3172 18.2209C13.0176 18.0524 12.7309 17.9525 12.5039 17.941C11.0125 17.8651 9.30229 18.8994 8.47149 20.2043C8.35306 20.3904 8.10715 20.4446 7.92224 20.3254C7.73732 20.2063 7.68343 19.9589 7.80187 19.7729C8.75654 18.2734 10.7161 17.0491 12.544 17.142C12.942 17.1623 13.352 17.3239 13.7054 17.5228C14.0638 17.7244 14.3981 17.9836 14.6496 18.2381C15.0526 18.6459 15.2812 19.1819 15.3942 19.7008C15.4447 19.9328 15.5402 20.158 15.6604 20.4048C15.6928 20.4711 15.7281 20.5412 15.7648 20.6139C15.8568 20.7964 15.957 20.9952 16.0384 21.1913C16.1141 21.3736 16.2046 21.5521 16.3028 21.7424C16.31 21.7565 16.3173 21.7706 16.3246 21.7848C16.4143 21.9585 16.5101 22.1442 16.5929 22.3339C16.7748 22.7504 16.9128 23.2261 16.8285 23.7816C16.775 24.1341 16.5873 24.3932 16.3249 24.5535C16.0787 24.7039 15.7897 24.7545 15.5277 24.7603C15.0092 24.7716 14.4419 24.6094 14.1127 24.4211C13.2859 23.9481 12.9419 23.3824 12.5251 22.6789C12.4912 22.6217 12.4428 22.5309 12.3901 22.4318C12.3598 22.3749 12.3281 22.3153 12.2968 22.2577C12.2036 22.0861 12.0973 21.8999 11.986 21.7355C11.8701 21.5644 11.7687 21.4473 11.6921 21.3893C11.6898 21.3875 11.6875 21.3858 11.6854 21.3843C11.5106 21.446 11.3111 21.3777 11.2126 21.2114C11.1002 21.0217 11.162 20.7761 11.3506 20.663C11.6752 20.4684 11.9888 20.6125 12.1707 20.7504C12.354 20.8894 12.5145 21.0951 12.6432 21.2851C12.7764 21.4819 12.8973 21.695 12.9945 21.8739C13.0386 21.955 13.0755 22.0246 13.1069 22.0836C13.15 22.1648 13.1825 22.226 13.2082 22.2694C13.6182 22.9615 13.8734 23.3639 14.5058 23.7257C14.7088 23.8418 15.1341 23.9687 15.5104 23.9605C15.6957 23.9564 15.8296 23.9201 15.9122 23.8697C15.9785 23.8292 16.0253 23.7736 16.0424 23.6609C16.0948 23.3159 16.0163 23.0025 15.8649 22.6556C15.7929 22.4908 15.7086 22.3273 15.6163 22.1485C15.6099 22.136 15.6034 22.1234 15.5968 22.1107C15.4993 21.9215 15.3945 21.7162 15.3046 21.4996C15.235 21.3318 15.1564 21.176 15.0705 21.0057C15.0306 20.9268 14.9892 20.8447 14.9465 20.757C14.8183 20.4941 14.6888 20.1997 14.6174 19.872C14.5257 19.4511 14.3507 19.0703 14.0857 18.8021C13.8868 18.6009 13.6118 18.3867 13.3172 18.2209ZM11.6549 21.3646C11.6549 21.3646 11.6553 21.3647 11.6562 21.3652C11.6553 21.3648 11.6549 21.3646 11.6549 21.3646Z" fill="#42370E"/>
<path fill-rule="evenodd" clip-rule="evenodd" d="M14.6948 16.2667C14.5496 16.1874 14.3994 16.1046 14.2725 16.0229C13.8492 15.7501 13.2838 15.4193 12.7099 15.2264C12.125 15.0298 11.618 15.0051 11.2437 15.2178C10.7132 15.5193 10.1666 15.758 9.63488 15.9902C9.45703 16.0678 9.28085 16.1448 9.10752 16.2231C8.75684 16.3815 8.33508 16.6044 7.95285 16.8659C7.56422 17.1318 7.24768 17.4167 7.07353 17.6902C6.9551 17.8762 6.70919 17.9304 6.52428 17.8113C6.33936 17.6921 6.28547 17.4447 6.40391 17.2587C6.66343 16.8511 7.08311 16.4935 7.50564 16.2044C7.93459 15.9109 8.39895 15.6662 8.78177 15.4933C8.97514 15.4059 9.16368 15.3236 9.34859 15.2428C9.86941 15.0153 10.3616 14.8004 10.8526 14.5213C11.5225 14.1406 12.3039 14.2465 12.9619 14.4676C13.631 14.6925 14.2629 15.0667 14.7014 15.3492C14.8001 15.4128 14.9251 15.4822 15.0742 15.5637C15.0884 15.5714 15.1028 15.5792 15.1173 15.5872C15.251 15.6601 15.3988 15.7407 15.5423 15.8262C15.8434 16.0056 16.207 16.251 16.4008 16.578C16.7351 17.1423 16.9804 17.7168 17.2205 18.279C17.3189 18.5092 17.4164 18.7374 17.5187 18.962C17.5748 19.0851 17.6673 19.2174 17.7866 19.3879C17.8312 19.4517 17.8796 19.5208 17.9312 19.5968C18.0919 19.8335 18.3004 20.1612 18.3366 20.5068C18.3592 20.722 18.3685 20.9129 18.3114 21.1116C18.2583 21.2964 18.1542 21.46 18.0437 21.6335L18.042 21.6361C18.0247 21.6634 18.007 21.6914 17.989 21.72C17.8334 21.9665 17.6498 22.2575 17.4153 22.4736C17.1258 22.7404 16.7539 22.9027 16.2594 22.8498C16.0411 22.8264 15.8829 22.6294 15.9061 22.4097C15.9293 22.1901 16.1252 22.0309 16.3436 22.0543C16.5899 22.0807 16.7403 22.0107 16.8782 21.8837C17.0303 21.7435 17.1557 21.5459 17.3255 21.2785C17.3408 21.2545 17.3564 21.2299 17.3724 21.2047C17.4983 21.0069 17.5321 20.9429 17.5474 20.8896C17.559 20.8493 17.5668 20.7904 17.5458 20.5907C17.5334 20.4723 17.4457 20.3002 17.2745 20.048C17.2436 20.0025 17.2089 19.953 17.1724 19.9009C17.0408 19.7135 16.8855 19.4921 16.7958 19.2954C16.6762 19.033 16.57 18.7841 16.4673 18.5434C16.2368 18.0033 16.024 17.5046 15.7177 16.9876C15.6381 16.8532 15.4411 16.6956 15.1372 16.5146C15.0074 16.4372 14.8728 16.3638 14.7373 16.2899C14.7231 16.2821 14.709 16.2744 14.6948 16.2667Z" fill="#42370E"/>
<path d="M6.64844 17.5669C6.52399 17.7636 6.39955 17.9604 6.2751 18.1571C6.1458 18.3616 6.15274 18.5694 6.0333 18.7582" stroke="#42370E" stroke-width="0.881871" stroke-linecap="round"/>
<path d="M6.02734 18.8335C6.04996 19.5592 6.26019 19.7085 6.45307 19.995C6.57936 20.1826 6.73657 20.5711 6.74363 20.7979" stroke="#42370E" stroke-width="0.881871" stroke-linecap="round"/>
<path fill-rule="evenodd" clip-rule="evenodd" d="M8.18932 19.8885C8.3749 20.0066 8.42843 20.2525 8.30889 20.4378C8.20648 20.5966 8.02042 20.7954 7.8696 20.9565C7.86299 20.9635 7.85644 20.9705 7.84997 20.9775C7.67158 21.1681 7.53727 21.3141 7.4793 21.404L7.37 21.5734C7.38207 21.6039 7.39605 21.6349 7.41371 21.6739C7.41721 21.6817 7.42086 21.6897 7.42467 21.6982C7.44409 21.7413 7.47489 21.8097 7.49441 21.8763C7.67602 22.4966 7.65988 23.1452 7.64601 23.7021C7.64454 23.7615 7.64308 23.8199 7.6419 23.8771C7.63325 24.295 7.64993 24.6973 7.66718 25.1134C7.67624 25.3319 7.68546 25.5542 7.69125 25.7847C7.70944 26.508 7.82493 27.3628 8.05604 28.0395C8.09803 28.1624 8.13511 28.2842 8.16975 28.3981L8.17119 28.4028C8.20689 28.5201 8.24004 28.6287 8.27649 28.7348C8.34886 28.9455 8.42917 29.1301 8.54475 29.299C8.67487 29.4891 8.91913 29.7112 9.21119 29.8871C9.50697 30.0652 9.79606 30.1624 10.0032 30.1644C10.2239 30.1665 10.4002 30.3464 10.397 30.5661C10.3938 30.7858 10.2123 30.9622 9.99156 30.9601C9.58412 30.9562 9.15203 30.7834 8.79503 30.5685C8.43431 30.3513 8.0942 30.0572 7.88338 29.7491C7.71185 29.4984 7.60404 29.2402 7.52 28.9956C7.47838 28.8745 7.44136 28.7529 7.40641 28.638L7.40606 28.6369C7.37036 28.5196 7.33664 28.4089 7.29908 28.2989C7.03447 27.5241 6.91164 26.5847 6.89212 25.8084C6.88702 25.6055 6.87843 25.3966 6.86969 25.1842C6.85193 24.7523 6.83356 24.3057 6.84269 23.8645C6.84385 23.8086 6.84513 23.7532 6.8464 23.6982C6.85974 23.1212 6.87185 22.5975 6.72688 22.1024C6.72688 22.1024 6.72689 22.1025 6.72688 22.1024C6.72668 22.1018 6.72468 22.0956 6.71896 22.0816C6.71298 22.067 6.7053 22.0496 6.69499 22.0267C6.69233 22.0208 6.68944 22.0144 6.68638 22.0076C6.66814 21.9674 6.64368 21.9134 6.62289 21.8601C6.59906 21.799 6.56962 21.7135 6.55811 21.6198C6.54684 21.5281 6.54689 21.3799 6.6386 21.2378L6.80728 20.9763C6.90969 20.8175 7.09575 20.6188 7.24657 20.4576C7.25318 20.4506 7.25973 20.4436 7.26619 20.4367C7.44458 20.246 7.5789 20.1 7.63687 20.0102C7.75641 19.8249 8.00375 19.7704 8.18932 19.8885Z" fill="#42370E"/>
<path fill-rule="evenodd" clip-rule="evenodd" d="M12.5472 24.9277C12.6657 24.7417 12.9116 24.6874 13.0966 24.8066C13.6524 25.1647 13.8956 25.7035 13.9787 26.2423C14.06 26.7696 13.9933 27.3223 13.9145 27.7709C13.8763 27.9884 13.67 28.1337 13.4538 28.0953C13.2375 28.0568 13.0932 27.8493 13.1314 27.6317C13.2064 27.2045 13.2534 26.758 13.1928 26.3651C13.134 25.9838 12.9798 25.6815 12.6676 25.4804C12.4827 25.3612 12.4288 25.1138 12.5472 24.9277Z" fill="#42370E"/>
<path fill-rule="evenodd" clip-rule="evenodd" d="M18.9837 8.28314C18.9123 8.22317 18.7662 8.15182 18.4781 8.13366C18.0695 8.10791 17.7395 8.28635 17.3986 8.60366C17.2263 8.76408 17.0622 8.94975 16.8883 9.15047C16.8723 9.16896 16.8561 9.18763 16.8399 9.20642C16.6848 9.38574 16.5195 9.57686 16.3476 9.7467C16.2458 9.84732 16.1475 9.99071 16.0404 10.1712C16.0058 10.2296 15.9669 10.298 15.9262 10.3696C15.8571 10.4913 15.7828 10.622 15.7157 10.7275C15.5819 10.9376 15.4342 11.1336 15.2967 11.3159L15.2912 11.3233C15.1491 11.5118 15.0176 11.6868 14.9 11.8714C14.7816 12.0575 14.5356 12.1117 14.3507 11.9925C14.1658 11.8734 14.1119 11.626 14.2304 11.44C14.3667 11.2258 14.5163 11.0274 14.6547 10.8437L14.6575 10.84C14.7998 10.6512 14.9303 10.4778 15.046 10.296C15.1063 10.2014 15.1584 10.1091 15.2167 10.0061C15.2587 9.93168 15.3039 9.85171 15.3576 9.76123C15.4721 9.56816 15.6128 9.35149 15.7904 9.17599C15.9387 9.0294 16.0833 8.86234 16.2425 8.67836C16.2578 8.66068 16.2733 8.64284 16.2888 8.62484C16.4617 8.42539 16.6511 8.20958 16.8585 8.0165C17.2772 7.62681 17.8116 7.29012 18.5278 7.33526C18.9188 7.35989 19.249 7.46387 19.4934 7.66912C19.7458 7.88116 19.862 8.16387 19.8882 8.45091C19.9373 8.98864 19.6779 9.58013 19.3958 10.0232C19.2774 10.2093 19.0315 10.2635 18.8466 10.1443C18.6617 10.0252 18.6078 9.77781 18.7262 9.59178C18.9799 9.19327 19.1207 8.79103 19.0963 8.52404C19.0858 8.40872 19.047 8.33632 18.9837 8.28314Z" fill="#42370E"/>
<path fill-rule="evenodd" clip-rule="evenodd" d="M24.4292 13.6204C24.5363 13.7677 24.6473 13.9774 24.6272 14.2228C24.6021 14.5289 24.4368 14.8022 24.263 15.0222C24.0836 15.2491 23.8544 15.4692 23.6316 15.6701C23.5169 15.7736 23.4139 15.8635 23.315 15.9498C23.2028 16.0477 23.0961 16.1409 22.9839 16.2437C22.7842 16.4268 22.6474 16.5707 22.5761 16.6812C22.4016 16.9518 22.3027 17.2057 22.2173 17.487C22.1888 17.581 22.1588 17.6897 22.1266 17.8069C22.0701 18.0121 22.0065 18.2434 21.9304 18.4677C21.8612 18.672 21.7642 18.8746 21.6796 19.0515C21.6576 19.0974 21.6365 19.1417 21.6169 19.1837C21.5148 19.4025 21.4394 19.5904 21.4085 19.7808C21.3315 20.256 21.2094 20.7663 21.0917 21.2175C21.086 21.2394 21.0824 21.2954 21.1227 21.414C21.1628 21.5319 21.2276 21.6609 21.3094 21.8226L21.3128 21.8294C21.3875 21.9772 21.4782 22.1565 21.5367 22.3354C21.5959 22.5166 21.6407 22.7503 21.5667 22.9915C21.5424 23.0709 21.5187 23.1467 21.4958 23.2201C21.4 23.5267 21.3171 23.7925 21.253 24.1047C21.2095 24.3171 21.204 24.4783 21.1972 24.6803C21.1937 24.7837 21.1899 24.8978 21.1804 25.0349C21.1544 25.409 21.0847 25.8474 20.851 26.4776C20.8137 26.9604 20.5766 27.3051 20.3363 27.5813C20.2605 27.6684 20.1722 27.7618 20.0904 27.8482C20.0465 27.8947 20.0044 27.9393 19.9671 27.9798C19.8502 28.1067 19.7482 28.2275 19.6641 28.3578C19.5761 28.4942 19.493 28.6324 19.4064 28.7761C19.383 28.815 19.3593 28.8543 19.3353 28.8941C19.2243 29.0774 19.1067 29.2677 18.977 29.451C18.7165 29.8189 18.3954 30.1764 17.9397 30.431C17.6508 30.5924 17.4261 30.8397 17.212 31.1544C17.1047 31.3119 17.0043 31.48 16.8991 31.6586C16.8871 31.6791 16.875 31.6998 16.8627 31.7206C16.7704 31.8777 16.6733 32.043 16.5706 32.2023C16.451 32.3876 16.2037 32.4421 16.0181 32.324C15.8326 32.2059 15.779 31.9599 15.8986 31.7746C15.9916 31.6304 16.0797 31.4804 16.173 31.3216C16.1852 31.3009 16.1975 31.28 16.2099 31.2589C16.3151 31.0801 16.4273 30.8918 16.5508 30.7102C16.7982 30.3468 17.1074 29.9854 17.551 29.7375C17.8626 29.5635 18.1011 29.3101 18.3243 28.9947C18.4364 28.8364 18.5416 28.6668 18.651 28.486C18.673 28.4496 18.6953 28.4126 18.7179 28.3751C18.8052 28.23 18.8967 28.078 18.9921 27.9302C19.1127 27.7432 19.2503 27.5834 19.3789 27.4438C19.4334 27.3845 19.4827 27.3325 19.5292 27.2834C19.601 27.2078 19.666 27.1392 19.7331 27.062C19.9359 26.829 20.0468 26.6365 20.056 26.3839L20.0584 26.3185L20.0817 26.2573C20.3042 25.6712 20.3614 25.2943 20.3829 24.984C20.3885 24.903 20.3916 24.8168 20.3948 24.7263C20.4031 24.492 20.4125 24.2285 20.4698 23.9492C20.5426 23.5942 20.6399 23.2833 20.7368 22.9733C20.7587 22.9032 20.7807 22.8331 20.8023 22.7627C20.8068 22.7478 20.8138 22.6993 20.7764 22.5849C20.7391 22.4709 20.6763 22.3439 20.595 22.1831L20.586 22.1654C20.5128 22.0206 20.4245 21.8462 20.3655 21.6724C20.3042 21.4922 20.2553 21.2613 20.3181 21.0209C20.4337 20.5779 20.5484 20.0959 20.6194 19.6578C20.6687 19.3533 20.7843 19.0825 20.8921 18.8514C20.9192 18.7935 20.9452 18.7389 20.9702 18.6866C21.0512 18.5168 21.1207 18.3714 21.1731 18.2166C21.2452 18.004 21.2934 17.8272 21.3428 17.6457C21.3761 17.5235 21.41 17.3991 21.4522 17.2602C21.5502 16.9374 21.6755 16.608 21.9041 16.2536C22.0364 16.0484 22.2423 15.8444 22.444 15.6595C22.5493 15.563 22.6783 15.45 22.8054 15.3388C22.9082 15.2487 23.0098 15.1598 23.0964 15.0817C23.3122 14.887 23.4999 14.7038 23.6356 14.5321C23.7697 14.3624 23.8196 14.245 23.8293 14.1729C23.8263 14.1639 23.8157 14.1369 23.7809 14.089C23.7236 14.0102 23.63 13.9157 23.5031 13.81C23.2546 13.603 22.9409 13.4033 22.6851 13.2405C22.68 13.2373 22.6749 13.2341 22.6699 13.2309C22.468 13.1024 22.3421 13.0304 22.2528 12.9914C22.2107 12.973 22.1852 12.9658 22.171 12.963C22.1591 12.9606 22.1545 12.9611 22.1529 12.9612C22.1444 12.9621 22.1156 12.967 22.014 13.02C21.9887 13.0333 21.9526 13.053 21.9095 13.0765C21.8222 13.1243 21.7059 13.1879 21.5906 13.2457C21.1545 13.4643 20.9325 13.6238 20.75 13.8093C20.5899 13.9721 20.4547 14.1584 20.2417 14.4519C20.1919 14.5206 20.1377 14.5952 20.078 14.6768C19.7686 15.0994 18.9397 16.3717 18.642 16.833C18.6064 16.8883 18.598 16.9171 18.5941 16.9348C18.5877 16.9639 18.5862 16.9923 18.582 17.0845C18.5732 17.2752 18.5534 17.5275 18.3917 17.9521C18.3409 18.0853 18.2989 18.244 18.2688 18.3761C18.2541 18.4407 18.2429 18.4961 18.2354 18.5349C18.2317 18.5543 18.2289 18.5695 18.2272 18.5795L18.2262 18.5847C18.164 19.1139 18.1206 19.3143 18.0495 19.6166L18.0437 19.6412L18.0349 19.6649C17.9775 19.8183 17.9456 19.9084 17.9279 19.9644C17.9255 19.9719 17.9236 19.9783 17.922 19.9838C17.9224 19.9866 17.9228 19.9893 17.9231 19.9916C17.9323 20.057 17.9345 20.1309 17.9261 20.233C17.9082 20.4521 17.7152 20.6161 17.4952 20.5993C17.2752 20.5825 17.1114 20.3912 17.1294 20.1721C17.1318 20.1424 17.1321 20.1247 17.1319 20.1154C17.1319 20.1108 17.1317 20.1082 17.1316 20.1071L17.1314 20.1054C17.1308 20.1012 17.1308 20.1011 17.1307 20.1006C17.1305 20.0999 17.13 20.0982 17.1265 20.0777C17.1224 20.0528 17.1172 20.0151 17.1183 19.968C17.1203 19.8825 17.1424 19.8021 17.1653 19.7295C17.1886 19.6555 17.2245 19.555 17.277 19.4143C17.3387 19.151 17.3761 18.9753 17.4335 18.4853L17.4347 18.4757L17.4363 18.4661L17.8305 18.5295C17.4363 18.4661 17.4363 18.4661 17.4363 18.4661L17.4364 18.4653L17.4366 18.4639L17.4374 18.4594L17.4401 18.4439C17.4425 18.4308 17.4459 18.4123 17.4503 18.3892C17.4591 18.3432 17.4722 18.2788 17.4893 18.2037C17.5228 18.0566 17.5745 17.8568 17.6444 17.6732C17.769 17.3459 17.7775 17.1806 17.7834 17.0521C17.7837 17.0456 17.784 17.0387 17.7843 17.0316C17.7872 16.9642 17.7913 16.8675 17.8135 16.7673C17.8405 16.6452 17.8901 16.5293 17.97 16.4053C18.262 15.9528 19.106 14.6564 19.4328 14.2101C19.484 14.1402 19.5328 14.0728 19.5798 14.0079C19.7955 13.71 19.974 13.4637 20.1801 13.254C20.4464 12.9833 20.7522 12.7768 21.2338 12.5353C21.3447 12.4797 21.4203 12.4381 21.4934 12.3978C21.542 12.371 21.5895 12.3449 21.6455 12.3157C21.7607 12.2555 21.9041 12.1874 22.0737 12.1698C22.2544 12.151 22.418 12.1931 22.5768 12.2624C22.7283 12.3285 22.8999 12.4307 23.1028 12.5598C23.1123 12.5659 23.122 12.572 23.1319 12.5783C23.3785 12.7352 23.7294 12.9584 24.0179 13.1988C24.1678 13.3236 24.3171 13.4662 24.4292 13.6204Z" fill="#42370E"/>
<path d="M9.89453 30.79C10.1678 30.9661 10.2659 31.3788 10.2473 31.6765C10.2366 31.8485 10.09 32.3483 10.1491 32.4482" stroke="#42370E" stroke-width="0.881871" stroke-linecap="round"/>
<path fill-rule="evenodd" clip-rule="evenodd" d="M16.4543 33.0711C16.5923 33.243 16.5656 33.4948 16.3948 33.6337C16.387 33.64 16.3791 33.6464 16.3712 33.6529C16.0765 33.8924 15.6918 34.2051 15.289 34.3932C14.7954 34.6236 14.2219 34.6324 13.7126 34.5804C13.2936 34.5376 12.8727 34.4475 12.5284 34.3738C12.4519 34.3575 12.3793 34.3419 12.3112 34.3279C12.0437 34.2726 11.7249 34.0976 11.4666 33.9297C11.1983 33.7554 10.9318 33.5467 10.7647 33.3755C10.5907 33.1973 10.3866 33.0692 10.1371 32.9125C10.073 32.8723 10.006 32.8302 9.93564 32.7849C9.75071 32.6658 9.69683 32.4184 9.81529 32.2323C9.93375 32.0462 10.1797 31.992 10.3646 32.1112C10.4147 32.1434 10.4681 32.1767 10.5238 32.2115C10.78 32.3714 11.0849 32.5616 11.3321 32.8148C11.4448 32.9303 11.6599 33.1028 11.8982 33.2576C12.1464 33.4189 12.3591 33.521 12.4712 33.5441C12.5493 33.5602 12.6291 33.5773 12.7102 33.5946C13.0532 33.6678 13.4214 33.7464 13.793 33.7844C14.2553 33.8316 14.6558 33.8067 14.9543 33.6674C15.2619 33.5238 15.5778 33.2691 15.8951 33.0113C16.066 32.8724 16.3163 32.8992 16.4543 33.0711Z" fill="#42370E"/>
<path d="M7.89318 10.5302L7.67104 12.2521L8.82578 13.5426L7.11417 13.3191L5.83139 14.4808L6.05353 12.7589L4.89879 11.4684L6.6104 11.6919L7.89318 10.5302Z" fill="#F4C005"/>
<path d="M25.3147 25.9295L25.1354 27.319L26.067 28.3603L24.686 28.1801L23.6509 29.1175L23.8302 27.7281L22.8986 26.6868L24.2796 26.867L25.3147 25.9295Z" fill="#F4C005"/>
<path d="M22.8086 8.14453L25.1242 5.43178" stroke="#F4C005" stroke-width="0.866667" stroke-linecap="round"/>
<path d="M23.5195 10.249L27.0704 10.0965" stroke="#F4C005" stroke-width="0.866667" stroke-linecap="round"/>
<path d="M23.6523 9.00342L25.5343 7.94876" stroke="#F4C005" stroke-width="0.866667" stroke-linecap="round"/>
<ellipse cx="0.597214" cy="0.599343" rx="0.597214" ry="0.599343" transform="matrix(0.884238 0.467036 -0.46268 0.886526 25.2227 19.0264)" fill="#F4C005"/>
<ellipse cx="1.58222" cy="1.58787" rx="1.58222" ry="1.58787" transform="matrix(0.884238 0.467036 -0.46268 0.886526 11.4023 5.15967)" fill="#F4C005"/>
<ellipse cx="0.694838" cy="0.697316" rx="0.694838" ry="0.697316" transform="matrix(0.884238 0.467036 -0.46268 0.886526 18.3789 4.29297)" fill="#F4C005"/>
</g>
<defs>
<clipPath id="clip0_1321_19263">
<rect width="32" height="32" fill="white" transform="translate(0 4)"/>
</clipPath>
</defs>
</svg>
