<svg width="22" height="16" viewBox="0 0 22 16" fill="none" xmlns="http://www.w3.org/2000/svg">
<path d="M18.1166 1.33998C16.7115 0.70497 15.2281 0.254475 13.7043 0C13.4958 0.367934 13.3072 0.746489 13.1391 1.13408C11.5161 0.892656 9.86552 0.892656 8.24245 1.13408C8.07434 0.746529 7.88568 0.367978 7.67725 0C6.15254 0.256624 4.66819 0.708188 3.26165 1.3433C0.4693 5.42134 -0.287661 9.39809 0.0908192 13.3184C1.72609 14.511 3.55642 15.418 5.50225 16C5.94039 15.4183 6.3281 14.8012 6.66124 14.1553C6.02848 13.922 5.41775 13.6342 4.83613 13.2951C4.9892 13.1856 5.13891 13.0726 5.28357 12.9631C6.97597 13.7487 8.82313 14.156 10.6933 14.156C12.5635 14.156 14.4107 13.7487 16.1031 12.9631C16.2494 13.0809 16.3991 13.1939 16.5505 13.2951C15.9678 13.6347 15.3559 13.9231 14.722 14.1569C15.0548 14.8026 15.4425 15.4192 15.881 16C17.8285 15.4204 19.6603 14.5138 21.2958 13.32C21.7399 8.77377 20.5372 4.83354 18.1166 1.33998ZM7.14065 10.9074C6.08595 10.9074 5.21461 9.96264 5.21461 8.80033C5.21461 7.63802 6.05567 6.68493 7.13729 6.68493C8.2189 6.68493 9.08352 7.63802 9.06502 8.80033C9.04651 9.96264 8.21554 10.9074 7.14065 10.9074ZM14.246 10.9074C13.1896 10.9074 12.3216 9.96264 12.3216 8.80033C12.3216 7.63802 13.1627 6.68493 14.246 6.68493C15.3293 6.68493 16.1872 7.63802 16.1687 8.80033C16.1502 9.96264 15.3209 10.9074 14.246 10.9074Z" fill="black"/>
</svg>
