<svg width="150" height="150" viewBox="0 0 150 150" fill="none" xmlns="http://www.w3.org/2000/svg">
<g clip-path="url(#clip0_1538_22441)">
<path d="M22.5 50.5L45.5 34L62 29L85 31L101.5 34L109 45L116 57.5L112 98L101.5 115.5L71 127.5L37 122.5L22.5 134.5L29 106L11.5 87V61L22.5 50.5Z" fill="#FFFCE3" stroke="black"/>
<path fill-rule="evenodd" clip-rule="evenodd" d="M64.656 23.6585C66.079 23.7167 67.4125 23.7712 68.8556 23.7712C74.6142 23.7712 80.7949 23.8119 86.8574 24.853C96.2233 26.4613 105.397 29.9068 111.688 38.6602C115.895 44.5127 117.496 51.6363 118 58.5259C118.488 65.212 117.96 72.0568 117.517 77.8135C117.503 77.9908 117.489 78.1671 117.476 78.3424C117.415 79.1284 117.358 79.9434 117.299 80.781C117.028 84.617 116.724 88.9241 115.953 93.0651C115.005 98.1556 113.292 103.405 109.768 107.787C103.007 116.192 93.5692 120.713 84.6933 124.517C75.9133 128.28 67.5106 130.909 57.0113 127.87C55.1117 127.32 53.2492 126.698 51.4623 126.096C51.341 126.056 51.2202 126.015 51.0997 125.974C49.4221 125.409 47.8136 124.867 46.1996 124.382C43.1157 123.455 40.1834 122.79 37.2218 122.658C37.1613 122.742 37.0974 122.833 37.03 122.932C36.9493 123.05 36.8715 123.166 36.7886 123.291L36.7716 123.317C36.6986 123.427 36.6122 123.557 36.5318 123.674C35.4647 125.226 34.1132 126.532 32.8752 127.614C32.2478 128.162 31.6117 128.684 31.025 129.163C30.9574 129.218 30.8906 129.273 30.8246 129.327C30.3028 129.753 29.8287 130.14 29.3813 130.522C28.3936 131.366 27.3726 132.115 26.4502 132.782C26.3432 132.86 26.2377 132.936 26.1337 133.011C25.308 133.608 24.5711 134.141 23.8635 134.71C23.7392 134.81 23.6395 134.918 23.3965 135.181C23.2817 135.306 23.135 135.465 22.9386 135.674C22.4983 136.143 21.6672 137.015 20.5269 137.586C20.2057 137.746 19.5063 138.048 18.5838 137.997C17.4558 137.935 16.4286 137.369 15.7743 136.463C15.2396 135.723 15.1152 134.984 15.0764 134.641C15.0322 134.25 15.0524 133.916 15.0735 133.704C15.1469 132.966 15.4009 132.204 15.5452 131.789C15.8781 130.832 16.3859 129.674 16.3724 129.707C18.1175 125.424 19.6993 121.042 21.1473 116.617C21.6118 115.198 22.2795 113.596 22.8862 112.14C23.1748 111.447 23.4495 110.788 23.6821 110.197C24.4957 108.131 25.0141 106.42 25.0923 104.935C25.1186 104.435 25.2456 103.964 25.4525 103.541C24.364 102.865 23.2116 102.248 21.9404 101.566C21.3038 101.225 20.6375 100.868 19.9344 100.48C17.6644 99.2258 15.1427 97.7047 13.0436 95.6056C3.80504 86.367 4.11535 73.9695 6.21898 63.241C7.22031 58.1342 10.4268 53.6777 13.7616 50.0476C16.4783 47.0905 19.5795 44.3772 22.1429 42.1345C22.7413 41.6109 23.3104 41.113 23.8385 40.6436C31.8702 33.5043 40.7088 26.606 52.3842 24.1624C55.272 23.5579 58.2654 23.4862 61.0274 23.5391C62.3574 23.5646 63.5345 23.6127 64.656 23.6585ZM31.3674 102.7C31.9916 103.387 32.3518 104.314 32.2991 105.315C32.1565 108.024 31.2639 110.639 30.3973 112.841C30.0388 113.751 29.6995 114.562 29.3832 115.317C28.8538 116.582 28.3888 117.692 28.0061 118.862C27.4846 120.455 26.9451 122.047 26.3863 123.634C26.411 123.614 26.4356 123.594 26.4602 123.574C27.0455 123.096 27.599 122.64 28.1272 122.179C29.2005 121.241 30.0244 120.4 30.5849 119.585C30.6066 119.554 30.6415 119.501 30.6875 119.431C30.9156 119.086 31.4151 118.33 31.9153 117.729C32.2352 117.344 32.6922 116.846 33.2717 116.419C33.8144 116.019 34.8186 115.418 36.1613 115.418C40.5018 115.418 44.5348 116.346 48.2776 117.471C50.0104 117.992 51.727 118.57 53.3811 119.128C53.5094 119.171 53.6373 119.214 53.7648 119.257C55.5586 119.861 57.2856 120.436 59.018 120.938C67.0527 123.264 73.5018 121.462 81.8505 117.884C90.7027 114.09 98.6108 110.143 104.144 103.264C106.621 100.184 108.02 96.2466 108.858 91.7443C109.547 88.0467 109.817 84.2437 110.088 80.4248C110.15 79.5466 110.213 78.6676 110.28 77.7889L110.306 77.4504C110.759 71.565 111.25 65.1884 110.802 59.0517C110.345 52.7948 108.931 47.1899 105.828 42.8722C101.123 36.3261 94.1452 33.4268 85.636 31.9656C80.262 31.0428 74.6644 30.9879 68.8556 30.9879C67.3941 30.9879 65.6959 30.9221 64.0676 30.859C62.9407 30.8153 61.8473 30.7729 60.8891 30.7545C58.2908 30.7047 55.9448 30.7903 53.8626 31.2261C44.1637 33.2561 36.5319 39.0163 28.633 46.0375C28.027 46.5761 27.4028 47.1228 26.7678 47.6789C24.2204 49.9096 21.4984 52.2933 19.0761 54.93C16.0339 58.2415 13.916 61.4925 13.3009 64.6296C11.3001 74.8337 11.6009 83.9569 18.1466 90.5026C19.4913 91.8472 21.2623 92.9686 23.4241 94.1629C23.9372 94.4463 24.4879 94.7414 25.0595 95.0477C26.7254 95.9403 28.5695 96.9284 30.1824 98.0036C31.7399 99.0419 32.2298 101.082 31.3674 102.7Z" fill="black"/>
<path fill-rule="evenodd" clip-rule="evenodd" d="M96.4586 71.3008C97.1336 72.4278 97.6018 73.8657 97.6018 75.0055C97.6018 75.7631 97.5577 76.5218 97.3998 77.2127C97.2407 77.9089 96.9385 78.6584 96.3311 79.2633C95.0502 80.5388 93.2134 80.4556 91.5447 80.0848C90.4875 79.8499 89.5483 79.4268 88.8647 78.6888C88.1554 77.9232 87.9115 77.0257 87.8641 76.2303C87.8196 75.4822 87.9441 74.7316 88.0532 74.1451C88.0846 73.9757 88.1152 73.8178 88.1442 73.6681C88.2279 73.2351 88.2986 72.8699 88.3409 72.4894C88.4323 71.6668 89.0632 71.0352 89.8417 70.9078C89.9794 70.394 90.2684 69.8703 90.7839 69.4662C91.3469 69.0247 92.0058 68.8631 92.6025 68.8281C93.6007 68.7693 94.434 69.166 95.0423 69.6415C95.642 70.1104 96.109 70.7171 96.4586 71.3008ZM92.7208 72.4202C92.7208 72.4201 92.7224 72.4206 92.7257 72.4221C92.7225 72.421 92.7208 72.4203 92.7208 72.4202ZM72.702 72.4911C73.216 73.1045 73.9178 74.1045 73.9178 75.2612C73.9178 77.0244 73.7064 78.8797 72.3401 80.0719C71.0256 81.2189 69.1543 81.2802 67.3797 81.1816C66.0525 81.1079 65.093 80.2569 64.5121 79.508C63.9012 78.7205 63.4653 77.7484 63.2191 76.8119C62.9786 75.897 62.8674 74.8177 63.1112 73.8375C63.2366 73.3333 63.4772 72.774 63.9257 72.3027C64.2668 71.9442 64.6848 71.6833 65.1538 71.5336C65.1506 71.3715 65.1539 71.2058 65.1638 71.0363C65.188 70.6249 65.338 70.111 65.7618 69.6892C66.169 69.284 66.6473 69.1455 66.9829 69.1035C67.5792 69.029 68.1256 69.2046 68.4312 69.3188C69.1375 69.5829 69.9318 70.0653 70.6385 70.5877C71.3604 71.1214 72.111 71.7858 72.702 72.4911ZM66.583 75.0081C66.6418 75.0728 66.6999 75.1348 66.757 75.1942C67.0266 75.475 67.254 75.6942 67.4499 75.8831C67.9043 76.3212 68.1896 76.5962 68.4404 77.0978C68.536 77.289 68.6609 77.4557 68.807 77.5954C68.5036 77.6084 68.1235 77.6071 67.6477 77.5824C67.6081 77.5578 67.5095 77.4849 67.3633 77.2964C67.1018 76.9593 66.8549 76.4498 66.7089 75.8944C66.6133 75.531 66.5817 75.2286 66.583 75.0081ZM47.8475 74.4838C47.9715 74.7592 48.1449 75.1972 48.1716 75.6777C48.2277 76.6868 47.908 77.6442 47.1176 78.3209C46.4275 78.9116 45.5912 79.0978 44.991 79.1693C44.362 79.2442 43.7169 79.2213 43.2115 79.1928C43.006 79.1811 42.8314 79.1695 42.6783 79.1593C42.3967 79.1405 42.188 79.1266 41.9938 79.1266C40.8745 79.1266 39.9815 78.5923 39.4447 77.7508C38.9923 77.0414 38.8624 76.2265 38.8164 75.6299C38.7676 74.9968 38.7984 74.3512 38.8318 73.8411C38.8444 73.6487 38.8564 73.4845 38.8668 73.3422C38.8879 73.0525 38.9025 72.853 38.9025 72.6886C38.9025 71.6922 39.7102 70.8844 40.7067 70.8844C40.8332 70.8844 40.9567 70.8974 41.0758 70.9222C41.2485 70.7114 41.4659 70.5169 41.7394 70.3611C42.4614 69.9498 43.1955 70.0229 43.6874 70.169C44.5685 70.4306 45.3283 71.1064 45.8291 71.6211C46.3919 72.1995 46.9191 72.8846 47.318 73.516C47.518 73.8326 47.7033 74.1633 47.8475 74.4838Z" fill="black"/>
<path fill-rule="evenodd" clip-rule="evenodd" d="M113.172 28.15C112.198 27.2986 112.082 25.8106 112.912 24.8264L128.52 6.31619C129.35 5.33204 130.812 5.22442 131.785 6.0758C132.759 6.92719 132.875 8.41518 132.045 9.39932L116.437 27.9096C115.607 28.8937 114.145 29.0013 113.172 28.15Z" fill="#F4C005"/>
<path fill-rule="evenodd" clip-rule="evenodd" d="M117.154 39.5867C117.208 38.2884 118.289 37.281 119.569 37.3366L143.506 38.3775C144.785 38.4332 145.779 39.5308 145.725 40.8291C145.671 42.1275 144.589 43.1349 143.31 43.0792L119.373 42.0383C118.094 41.9827 117.1 40.885 117.154 39.5867Z" fill="#F4C005"/>
<path fill-rule="evenodd" clip-rule="evenodd" d="M118.35 33.3764C117.727 32.2365 118.125 30.7999 119.239 30.1676L131.925 22.9711C133.039 22.3388 134.448 22.7502 135.072 23.89C135.695 25.0299 135.297 26.4665 134.183 27.0988L121.497 34.2953C120.383 34.9276 118.974 34.5162 118.35 33.3764Z" fill="#F4C005"/>
</g>
<defs>
<clipPath id="clip0_1538_22441">
<rect width="150" height="150" fill="white"/>
</clipPath>
</defs>
</svg>
