<svg width="32" height="33" viewBox="0 0 32 33" fill="none" xmlns="http://www.w3.org/2000/svg">
<path d="M4.13574 9.93871C3.93093 8.85329 4.6448 7.80735 5.73021 7.60254L25.3834 3.89405C26.4688 3.68924 27.5147 4.40311 27.7195 5.48852L29.8645 16.8555C30.0693 17.9409 29.3554 18.9868 28.27 19.1917L8.61682 22.9001C7.5314 23.105 6.48546 22.3911 6.28065 21.3057L4.13574 9.93871Z" fill="#C0FF58"/>
<path fill-rule="evenodd" clip-rule="evenodd" d="M25.5317 4.68018L5.87855 8.38867C5.2273 8.51156 4.79898 9.13912 4.92187 9.79037L7.06678 21.1573C7.18967 21.8086 7.81723 22.2369 8.46848 22.114L28.1216 18.4055C28.7729 18.2826 29.2012 17.6551 29.0783 17.0038L26.9334 5.63686C26.8105 4.98561 26.183 4.55729 25.5317 4.68018ZM5.73021 7.60254C4.6448 7.80735 3.93093 8.85329 4.13574 9.93871L6.28065 21.3057C6.48546 22.3911 7.5314 23.105 8.61682 22.9001L28.27 19.1917C29.3554 18.9868 30.0693 17.9409 29.8645 16.8555L27.7195 5.48852C27.5147 4.40311 26.4688 3.68924 25.3834 3.89405L5.73021 7.60254Z" fill="#222222"/>
<path d="M2.37085 14.9387C2.16603 13.8533 2.8799 12.8074 3.96532 12.6025L23.6185 8.89405C24.7039 8.68924 25.7498 9.40311 25.9547 10.4885L28.0996 21.8555C28.3044 22.9409 27.5905 23.9868 26.5051 24.1917L6.85192 27.9001C5.76651 28.105 4.72057 27.3911 4.51576 26.3057L2.37085 14.9387Z" fill="#C0FF58"/>
<path fill-rule="evenodd" clip-rule="evenodd" d="M23.7668 9.68018L4.11366 13.3887C3.46241 13.5116 3.03409 14.1391 3.15698 14.7904L5.30188 26.1573C5.42477 26.8086 6.05234 27.2369 6.70358 27.114L26.3568 23.4055C27.008 23.2826 27.4363 22.6551 27.3134 22.0038L25.1685 10.6369C25.0456 9.98561 24.4181 9.55729 23.7668 9.68018ZM3.96532 12.6025C2.8799 12.8074 2.16603 13.8533 2.37085 14.9387L4.51576 26.3057C4.72057 27.3911 5.76651 28.105 6.85192 27.9001L26.5051 24.1917C27.5905 23.9868 28.3044 22.9409 28.0996 21.8555L25.9547 10.4885C25.7498 9.40311 24.7039 8.68924 23.6185 8.89405L3.96532 12.6025Z" fill="#222222"/>
<path d="M15.0621 23.5135C14.9814 23.5135 14.9154 23.4879 14.8641 23.4365C14.8128 23.3852 14.7871 23.3192 14.7871 23.2385V22.4795C14.2298 22.4135 13.7641 22.2779 13.3901 22.0725C13.0161 21.8599 12.7338 21.6032 12.5431 21.3025C12.3524 21.0019 12.2498 20.6865 12.2351 20.3565C12.2351 20.2979 12.2571 20.2465 12.3011 20.2025C12.3524 20.1512 12.4111 20.1255 12.4771 20.1255H13.6541C13.7494 20.1255 13.8228 20.1475 13.8741 20.1915C13.9254 20.2282 13.9731 20.2759 14.0171 20.3345C14.0684 20.4592 14.1491 20.5802 14.2591 20.6975C14.3764 20.8149 14.5341 20.9139 14.7321 20.9945C14.9301 21.0679 15.1758 21.1045 15.4691 21.1045C15.9458 21.1045 16.3014 21.0275 16.5361 20.8735C16.7781 20.7195 16.8991 20.5105 16.8991 20.2465C16.8991 20.0559 16.8331 19.9019 16.7011 19.7845C16.5764 19.6672 16.3748 19.5609 16.0961 19.4655C15.8248 19.3702 15.4581 19.2675 14.9961 19.1575C14.4461 19.0402 13.9804 18.8899 13.5991 18.7065C13.2178 18.5159 12.9281 18.2739 12.7301 17.9805C12.5394 17.6799 12.4441 17.3095 12.4441 16.8695C12.4441 16.2902 12.6494 15.7989 13.0601 15.3955C13.4781 14.9922 14.0538 14.7429 14.7871 14.6475V13.8885C14.7871 13.8079 14.8128 13.7419 14.8641 13.6905C14.9154 13.6392 14.9814 13.6135 15.0621 13.6135H15.8431C15.9164 13.6135 15.9788 13.6392 16.0301 13.6905C16.0814 13.7419 16.1071 13.8079 16.1071 13.8885V14.6695C16.6131 14.7502 17.0348 14.9042 17.3721 15.1315C17.7168 15.3515 17.9771 15.6045 18.1531 15.8905C18.3364 16.1692 18.4318 16.4405 18.4391 16.7045C18.4391 16.7632 18.4171 16.8182 18.3731 16.8695C18.3291 16.9135 18.2741 16.9355 18.2081 16.9355H16.9651C16.8991 16.9355 16.8368 16.9209 16.7781 16.8915C16.7194 16.8622 16.6681 16.8109 16.6241 16.7375C16.5874 16.5469 16.4591 16.3819 16.2391 16.2425C16.0191 16.0959 15.7404 16.0225 15.4031 16.0225C15.0438 16.0225 14.7578 16.0885 14.5451 16.2205C14.3324 16.3525 14.2261 16.5542 14.2261 16.8255C14.2261 17.0015 14.2811 17.1519 14.3911 17.2765C14.5011 17.3939 14.6808 17.5002 14.9301 17.5955C15.1794 17.6835 15.5168 17.7825 15.9421 17.8925C16.5874 18.0245 17.1118 18.1822 17.5151 18.3655C17.9184 18.5489 18.2118 18.7872 18.3951 19.0805C18.5858 19.3665 18.6811 19.7295 18.6811 20.1695C18.6811 20.5949 18.5748 20.9725 18.3621 21.3025C18.1494 21.6252 17.8488 21.8855 17.4601 22.0835C17.0788 22.2815 16.6278 22.4135 16.1071 22.4795V23.2385C16.1071 23.3192 16.0814 23.3852 16.0301 23.4365C15.9788 23.4879 15.9164 23.5135 15.8431 23.5135H15.0621Z" fill="#222222"/>
</svg>
