<svg width="32" height="32" viewBox="0 0 32 32" fill="none" xmlns="http://www.w3.org/2000/svg">
<g clip-path="url(#clip0_1307_50320)">
<circle cx="16" cy="15.8931" r="13" fill="#FFF1A6"/>
<path d="M9.93516 11.5598L12.1018 10.6931L13.4018 8.95977L13.8352 8.0931L14.7018 7.65977L15.1352 6.7931L15.5685 5.4931L16.8685 4.62643L17.3018 3.75977H18.6018H19.4685V5.05977V5.92643L20.3352 5.4931H21.2018L22.0685 6.35977L21.6352 7.22643L20.3352 8.52643L18.1685 9.82643L16.0018 11.1264L15.1352 11.9931L16.4352 12.8598L16.8685 15.0264L17.7352 15.4598L18.1685 12.8598L19.0352 11.5598L19.9018 10.2598L20.7685 8.95977L22.0685 8.52643L23.3685 8.95977L24.2352 10.2598L22.0685 12.4264L21.6352 14.1598L20.7685 17.1931L21.2018 18.9264L20.7685 19.7931V22.3931L19.4685 23.6931L18.6018 24.9931L17.3018 25.8598L16.4352 27.5931L16.0018 29.7598L14.2685 30.1931L11.6685 29.3264L10.3685 28.0264L9.93516 26.7264L8.20182 25.4264L7.33516 20.2264L6.90182 16.7598L6.03516 15.0264L6.46849 14.1598L6.90182 13.2931L7.76849 12.4264L9.93516 11.5598Z" fill="white"/>
<path fill-rule="evenodd" clip-rule="evenodd" d="M20.734 5.94697C20.454 5.97129 20.1517 6.08491 19.7431 6.2695C19.5731 6.34629 19.4028 6.42121 19.2334 6.49573C18.6489 6.75291 18.0749 7.00544 17.5595 7.31448C16.492 7.95457 15.2719 8.42261 14.0615 8.72616C13.9514 8.75376 13.8245 8.82995 13.6805 8.97455C13.5375 9.11818 13.3976 9.30922 13.2596 9.53037C13.1221 9.75056 12.9951 9.98652 12.872 10.2171C12.8642 10.2317 12.8564 10.2464 12.8486 10.2611C12.737 10.4705 12.6245 10.6815 12.5176 10.8495C12.3991 11.0355 12.1532 11.0897 11.9683 10.9705C11.7834 10.8514 11.7295 10.604 11.8479 10.418C11.9376 10.2772 12.0362 10.0922 12.1547 9.87013L12.1714 9.83884C12.2935 9.6098 12.4324 9.35126 12.5861 9.10499C12.7392 8.85968 12.9157 8.6123 13.1186 8.40842C13.3207 8.20552 13.5693 8.02513 13.8691 7.94995C15.0191 7.66157 16.1638 7.22003 17.1524 6.62731C17.7151 6.28989 18.3513 6.01024 18.9429 5.75017C19.1052 5.67881 19.2642 5.60892 19.4174 5.53973C19.8263 5.35497 20.238 5.1871 20.6656 5.14996C21.1149 5.11095 21.5521 5.21725 22.0152 5.51563C22.2407 5.66087 22.4159 5.84398 22.5123 6.07161C22.6102 6.30248 22.6099 6.53868 22.5538 6.75583C22.4482 7.16486 22.1357 7.54422 21.8148 7.85568C21.244 8.40956 20.4606 8.91909 20.0304 9.1989C19.9665 9.24046 19.9104 9.27696 19.8639 9.30778C19.8267 9.33244 19.7895 9.35713 19.7522 9.38185C19.3957 9.61811 19.0349 9.85718 18.6927 10.1033C18.4363 10.2877 18.0256 10.4786 17.6623 10.6474C17.643 10.6564 17.6238 10.6653 17.6048 10.6741C17.1929 10.8658 16.8508 11.0294 16.6753 11.1643C16.4062 11.3711 16.3307 11.4749 16.2706 11.5805C16.2443 11.6269 16.2228 11.6702 16.1939 11.7284C16.1778 11.7608 16.1595 11.7978 16.1367 11.8425C16.0777 11.9584 16.0028 12.0971 15.8924 12.2705C15.774 12.4566 15.5281 12.5108 15.3432 12.3916C15.1582 12.2725 15.1043 12.0251 15.2228 11.8391C15.3162 11.6923 15.3785 11.577 15.429 11.4778C15.4422 11.4518 15.456 11.424 15.4702 11.3954C15.5053 11.3249 15.5428 11.2494 15.5803 11.1834C15.7078 10.9593 15.8665 10.7792 16.1925 10.5286C16.4522 10.329 16.887 10.1267 17.2615 9.9525L17.271 9.94805C17.6829 9.75639 18.0368 9.59161 18.2303 9.45249C18.5856 9.19697 18.9592 8.94939 19.3137 8.71448C19.3514 8.68948 19.3889 8.66462 19.4262 8.63992C19.4796 8.60451 19.5411 8.56436 19.6092 8.52001C20.0475 8.23424 20.7538 7.7738 21.2627 7.27993C21.5635 6.98805 21.7367 6.7383 21.7841 6.55476C21.8045 6.47564 21.7975 6.4247 21.7808 6.38536C21.7628 6.34277 21.7157 6.27259 21.5863 6.18927C21.2566 5.97682 20.9923 5.92454 20.734 5.94697Z" fill="#42370E"/>
<path fill-rule="evenodd" clip-rule="evenodd" d="M13.3172 14.2209C13.0176 14.0524 12.7309 13.9525 12.5039 13.941C11.0125 13.8651 9.30229 14.8994 8.47149 16.2043C8.35306 16.3904 8.10715 16.4446 7.92224 16.3254C7.73732 16.2063 7.68343 15.9589 7.80187 15.7729C8.75654 14.2734 10.7161 13.0491 12.544 13.142C12.942 13.1623 13.352 13.3239 13.7054 13.5228C14.0638 13.7244 14.3981 13.9836 14.6496 14.2381C15.0526 14.6459 15.2812 15.1819 15.3942 15.7008C15.4447 15.9328 15.5402 16.158 15.6604 16.4048C15.6928 16.4711 15.7281 16.5412 15.7648 16.6139C15.8568 16.7964 15.957 16.9952 16.0384 17.1913C16.1141 17.3736 16.2046 17.5521 16.3028 17.7424C16.31 17.7565 16.3173 17.7706 16.3246 17.7848C16.4143 17.9585 16.5101 18.1442 16.5929 18.3339C16.7748 18.7504 16.9128 19.2261 16.8285 19.7816C16.775 20.1341 16.5873 20.3932 16.3249 20.5535C16.0787 20.7039 15.7897 20.7545 15.5277 20.7603C15.0092 20.7716 14.4419 20.6094 14.1127 20.4211C13.2859 19.9481 12.9419 19.3824 12.5251 18.6789C12.4912 18.6217 12.4428 18.5309 12.3901 18.4318C12.3598 18.3749 12.3281 18.3153 12.2968 18.2577C12.2036 18.0861 12.0973 17.8999 11.986 17.7355C11.8701 17.5644 11.7687 17.4473 11.6921 17.3893C11.6898 17.3875 11.6875 17.3858 11.6854 17.3843C11.5106 17.446 11.3111 17.3777 11.2126 17.2114C11.1002 17.0217 11.162 16.7761 11.3506 16.663C11.6752 16.4684 11.9888 16.6125 12.1707 16.7504C12.354 16.8894 12.5145 17.0951 12.6432 17.2851C12.7764 17.4819 12.8973 17.695 12.9945 17.8739C13.0386 17.955 13.0755 18.0246 13.1069 18.0836C13.15 18.1648 13.1825 18.226 13.2082 18.2694C13.6182 18.9615 13.8734 19.3639 14.5058 19.7257C14.7088 19.8418 15.1341 19.9687 15.5104 19.9605C15.6957 19.9564 15.8296 19.9201 15.9122 19.8697C15.9785 19.8292 16.0253 19.7736 16.0424 19.6609C16.0948 19.3159 16.0163 19.0025 15.8649 18.6556C15.7929 18.4908 15.7086 18.3273 15.6163 18.1485C15.6099 18.136 15.6034 18.1234 15.5968 18.1107C15.4993 17.9215 15.3945 17.7162 15.3046 17.4996C15.235 17.3318 15.1564 17.176 15.0705 17.0057C15.0306 16.9268 14.9892 16.8447 14.9465 16.757C14.8183 16.4941 14.6888 16.1997 14.6174 15.872C14.5257 15.4511 14.3507 15.0703 14.0857 14.8021C13.8868 14.6009 13.6118 14.3867 13.3172 14.2209ZM11.6549 17.3646C11.6549 17.3646 11.6553 17.3647 11.6562 17.3652C11.6553 17.3648 11.6549 17.3646 11.6549 17.3646Z" fill="#42370E"/>
<path fill-rule="evenodd" clip-rule="evenodd" d="M14.6948 12.2667C14.5496 12.1874 14.3994 12.1046 14.2725 12.0229C13.8492 11.7501 13.2838 11.4193 12.7099 11.2264C12.125 11.0298 11.618 11.0051 11.2437 11.2178C10.7132 11.5193 10.1666 11.758 9.63488 11.9902C9.45703 12.0678 9.28085 12.1448 9.10752 12.2231C8.75684 12.3815 8.33508 12.6044 7.95285 12.8659C7.56422 13.1318 7.24768 13.4167 7.07353 13.6902C6.9551 13.8762 6.70919 13.9304 6.52428 13.8113C6.33936 13.6921 6.28547 13.4447 6.40391 13.2587C6.66343 12.8511 7.08311 12.4935 7.50564 12.2044C7.93459 11.9109 8.39895 11.6662 8.78177 11.4933C8.97514 11.4059 9.16368 11.3236 9.34859 11.2428C9.86941 11.0153 10.3616 10.8004 10.8526 10.5213C11.5225 10.1406 12.3039 10.2465 12.9619 10.4676C13.631 10.6925 14.2629 11.0667 14.7014 11.3492C14.8001 11.4128 14.9251 11.4822 15.0742 11.5637C15.0884 11.5714 15.1028 11.5792 15.1173 11.5872C15.251 11.6601 15.3988 11.7407 15.5423 11.8262C15.8434 12.0056 16.207 12.251 16.4008 12.578C16.7351 13.1423 16.9804 13.7168 17.2205 14.279C17.3189 14.5092 17.4164 14.7374 17.5187 14.962C17.5748 15.0851 17.6673 15.2174 17.7866 15.3879C17.8312 15.4517 17.8796 15.5208 17.9312 15.5968C18.0919 15.8335 18.3004 16.1612 18.3366 16.5068C18.3592 16.722 18.3685 16.9129 18.3114 17.1116C18.2583 17.2964 18.1542 17.46 18.0437 17.6335L18.042 17.6361C18.0247 17.6634 18.007 17.6914 17.989 17.72C17.8334 17.9665 17.6498 18.2575 17.4153 18.4736C17.1258 18.7404 16.7539 18.9027 16.2594 18.8498C16.0411 18.8264 15.8829 18.6294 15.9061 18.4097C15.9293 18.1901 16.1252 18.0309 16.3436 18.0543C16.5899 18.0807 16.7403 18.0107 16.8782 17.8837C17.0303 17.7435 17.1557 17.5459 17.3255 17.2785C17.3408 17.2545 17.3564 17.2299 17.3724 17.2047C17.4983 17.0069 17.5321 16.9429 17.5474 16.8896C17.559 16.8493 17.5668 16.7904 17.5458 16.5907C17.5334 16.4723 17.4457 16.3002 17.2745 16.048C17.2436 16.0025 17.2089 15.953 17.1724 15.9009C17.0408 15.7135 16.8855 15.4921 16.7958 15.2954C16.6762 15.033 16.57 14.7841 16.4673 14.5434C16.2368 14.0033 16.024 13.5046 15.7177 12.9876C15.6381 12.8532 15.4411 12.6956 15.1372 12.5146C15.0074 12.4372 14.8728 12.3638 14.7373 12.2899C14.7231 12.2821 14.709 12.2744 14.6948 12.2667Z" fill="#42370E"/>
<path d="M6.64844 13.5669C6.52399 13.7636 6.39955 13.9604 6.2751 14.1571C6.1458 14.3616 6.15274 14.5694 6.0333 14.7582" stroke="#42370E" stroke-width="0.881871" stroke-linecap="round"/>
<path d="M6.02734 14.8335C6.04996 15.5592 6.26019 15.7085 6.45307 15.995C6.57936 16.1826 6.73657 16.5711 6.74363 16.7979" stroke="#42370E" stroke-width="0.881871" stroke-linecap="round"/>
<path fill-rule="evenodd" clip-rule="evenodd" d="M8.18932 15.8885C8.3749 16.0066 8.42843 16.2525 8.30889 16.4378C8.20648 16.5966 8.02042 16.7954 7.8696 16.9565C7.86299 16.9635 7.85644 16.9705 7.84997 16.9775C7.67158 17.1681 7.53727 17.3141 7.4793 17.404L7.37 17.5734C7.38207 17.6039 7.39605 17.6349 7.41371 17.6739C7.41721 17.6817 7.42086 17.6897 7.42467 17.6982C7.44409 17.7413 7.47489 17.8097 7.49441 17.8763C7.67602 18.4966 7.65988 19.1452 7.64601 19.7021C7.64454 19.7615 7.64308 19.8199 7.6419 19.8771C7.63325 20.295 7.64993 20.6973 7.66718 21.1134C7.67624 21.3319 7.68546 21.5542 7.69125 21.7847C7.70944 22.508 7.82493 23.3628 8.05604 24.0395C8.09803 24.1624 8.13511 24.2842 8.16975 24.3981L8.17119 24.4028C8.20689 24.5201 8.24004 24.6287 8.27649 24.7348C8.34886 24.9455 8.42917 25.1301 8.54475 25.299C8.67487 25.4891 8.91913 25.7112 9.21119 25.8871C9.50697 26.0652 9.79606 26.1624 10.0032 26.1644C10.2239 26.1665 10.4002 26.3464 10.397 26.5661C10.3938 26.7858 10.2123 26.9622 9.99156 26.9601C9.58412 26.9562 9.15203 26.7834 8.79503 26.5685C8.43431 26.3513 8.0942 26.0572 7.88338 25.7491C7.71185 25.4984 7.60404 25.2402 7.52 24.9956C7.47838 24.8745 7.44136 24.7529 7.40641 24.638L7.40606 24.6369C7.37036 24.5196 7.33664 24.4089 7.29908 24.2989C7.03447 23.5241 6.91164 22.5847 6.89212 21.8084C6.88702 21.6055 6.87843 21.3966 6.86969 21.1842C6.85193 20.7523 6.83356 20.3057 6.84269 19.8645C6.84385 19.8086 6.84513 19.7532 6.8464 19.6982C6.85974 19.1212 6.87185 18.5975 6.72688 18.1024C6.72688 18.1024 6.72689 18.1025 6.72688 18.1024C6.72668 18.1018 6.72468 18.0956 6.71896 18.0816C6.71298 18.067 6.7053 18.0496 6.69499 18.0267C6.69233 18.0208 6.68944 18.0144 6.68638 18.0076C6.66814 17.9674 6.64368 17.9134 6.62289 17.8601C6.59906 17.799 6.56962 17.7135 6.55811 17.6198C6.54684 17.5281 6.54689 17.3799 6.6386 17.2378L6.80728 16.9763C6.90969 16.8175 7.09575 16.6188 7.24657 16.4576C7.25318 16.4506 7.25973 16.4436 7.26619 16.4367C7.44458 16.246 7.5789 16.1 7.63687 16.0102C7.75641 15.8249 8.00375 15.7704 8.18932 15.8885Z" fill="#42370E"/>
<path fill-rule="evenodd" clip-rule="evenodd" d="M12.5472 20.9277C12.6657 20.7417 12.9116 20.6874 13.0966 20.8066C13.6524 21.1647 13.8956 21.7035 13.9787 22.2423C14.06 22.7696 13.9933 23.3223 13.9145 23.7709C13.8763 23.9884 13.67 24.1337 13.4538 24.0953C13.2375 24.0568 13.0932 23.8493 13.1314 23.6317C13.2064 23.2045 13.2534 22.758 13.1928 22.3651C13.134 21.9838 12.9798 21.6815 12.6676 21.4804C12.4827 21.3612 12.4288 21.1138 12.5472 20.9277Z" fill="#42370E"/>
<path fill-rule="evenodd" clip-rule="evenodd" d="M18.9837 4.28314C18.9123 4.22317 18.7662 4.15182 18.4781 4.13366C18.0695 4.10791 17.7395 4.28635 17.3986 4.60366C17.2263 4.76408 17.0622 4.94975 16.8883 5.15047C16.8723 5.16896 16.8561 5.18763 16.8399 5.20642C16.6848 5.38574 16.5195 5.57686 16.3476 5.7467C16.2458 5.84732 16.1475 5.99071 16.0404 6.17122C16.0058 6.22961 15.9669 6.29804 15.9262 6.36957C15.8571 6.49131 15.7828 6.62202 15.7157 6.72746C15.5819 6.93756 15.4342 7.13356 15.2967 7.31591L15.2912 7.32331C15.1491 7.51183 15.0176 7.68677 14.9 7.87143C14.7816 8.05745 14.5356 8.11167 14.3507 7.99252C14.1658 7.87338 14.1119 7.62599 14.2304 7.43997C14.3667 7.22581 14.5163 7.02737 14.6547 6.8437L14.6575 6.83999C14.7998 6.65121 14.9303 6.47782 15.046 6.296C15.1063 6.2014 15.1584 6.1091 15.2167 6.00606C15.2587 5.93168 15.3039 5.85171 15.3576 5.76123C15.4721 5.56816 15.6128 5.35149 15.7904 5.17599C15.9387 5.0294 16.0833 4.86234 16.2425 4.67836C16.2578 4.66068 16.2733 4.64284 16.2888 4.62484C16.4617 4.42539 16.6511 4.20958 16.8585 4.0165C17.2772 3.62681 17.8116 3.29012 18.5278 3.33526C18.9188 3.35989 19.249 3.46387 19.4934 3.66912C19.7458 3.88116 19.862 4.16387 19.8882 4.45091C19.9373 4.98864 19.6779 5.58013 19.3958 6.02324C19.2774 6.20926 19.0315 6.26348 18.8466 6.14433C18.6617 6.02519 18.6078 5.77781 18.7262 5.59178C18.9799 5.19327 19.1207 4.79103 19.0963 4.52404C19.0858 4.40872 19.047 4.33632 18.9837 4.28314Z" fill="#42370E"/>
<path fill-rule="evenodd" clip-rule="evenodd" d="M24.4292 9.62037C24.5363 9.76767 24.6473 9.97739 24.6272 10.2228C24.6021 10.5289 24.4368 10.8022 24.263 11.0222C24.0836 11.2491 23.8544 11.4692 23.6316 11.6701C23.5169 11.7736 23.4139 11.8635 23.315 11.9498C23.2028 12.0477 23.0961 12.1409 22.9839 12.2437C22.7842 12.4268 22.6474 12.5707 22.5761 12.6812C22.4016 12.9518 22.3027 13.2057 22.2173 13.487C22.1888 13.581 22.1588 13.6897 22.1266 13.8069C22.0701 14.0121 22.0065 14.2434 21.9304 14.4677C21.8612 14.672 21.7642 14.8746 21.6796 15.0515C21.6576 15.0974 21.6365 15.1417 21.6169 15.1837C21.5148 15.4025 21.4394 15.5904 21.4085 15.7808C21.3315 16.256 21.2094 16.7663 21.0917 17.2175C21.086 17.2394 21.0824 17.2954 21.1227 17.414C21.1628 17.5319 21.2276 17.6609 21.3094 17.8226L21.3128 17.8294C21.3875 17.9772 21.4782 18.1565 21.5367 18.3354C21.5959 18.5166 21.6407 18.7503 21.5667 18.9915C21.5424 19.0709 21.5187 19.1467 21.4958 19.2201C21.4 19.5267 21.3171 19.7925 21.253 20.1047C21.2095 20.3171 21.204 20.4783 21.1972 20.6803C21.1937 20.7837 21.1899 20.8978 21.1804 21.0349C21.1544 21.409 21.0847 21.8474 20.851 22.4776C20.8137 22.9604 20.5766 23.3051 20.3363 23.5813C20.2605 23.6684 20.1722 23.7618 20.0904 23.8482C20.0465 23.8947 20.0044 23.9393 19.9671 23.9798C19.8502 24.1067 19.7482 24.2275 19.6641 24.3578C19.5761 24.4942 19.493 24.6324 19.4064 24.7761C19.383 24.815 19.3593 24.8543 19.3353 24.8941C19.2243 25.0774 19.1067 25.2677 18.977 25.451C18.7165 25.8189 18.3954 26.1764 17.9397 26.431C17.6508 26.5924 17.4261 26.8397 17.212 27.1544C17.1047 27.3119 17.0043 27.48 16.8991 27.6586C16.8871 27.6791 16.875 27.6998 16.8627 27.7206C16.7704 27.8777 16.6733 28.043 16.5706 28.2023C16.451 28.3876 16.2037 28.4421 16.0181 28.324C15.8326 28.2059 15.779 27.9599 15.8986 27.7746C15.9916 27.6304 16.0797 27.4804 16.173 27.3216C16.1852 27.3009 16.1975 27.28 16.2099 27.2589C16.3151 27.0801 16.4273 26.8918 16.5508 26.7102C16.7982 26.3468 17.1074 25.9854 17.551 25.7375C17.8626 25.5635 18.1011 25.3101 18.3243 24.9947C18.4364 24.8364 18.5416 24.6668 18.651 24.486C18.673 24.4496 18.6953 24.4126 18.7179 24.3751C18.8052 24.23 18.8967 24.078 18.9921 23.9302C19.1127 23.7432 19.2503 23.5834 19.3789 23.4438C19.4334 23.3845 19.4827 23.3325 19.5292 23.2834C19.601 23.2078 19.666 23.1392 19.7331 23.062C19.9359 22.829 20.0468 22.6365 20.056 22.3839L20.0584 22.3185L20.0817 22.2573C20.3042 21.6712 20.3614 21.2943 20.3829 20.984C20.3885 20.903 20.3916 20.8168 20.3948 20.7263C20.4031 20.492 20.4125 20.2285 20.4698 19.9492C20.5426 19.5942 20.6399 19.2833 20.7368 18.9733C20.7587 18.9032 20.7807 18.8331 20.8023 18.7627C20.8068 18.7478 20.8138 18.6993 20.7764 18.5849C20.7391 18.4709 20.6763 18.3439 20.595 18.1831L20.586 18.1654C20.5128 18.0206 20.4245 17.8462 20.3655 17.6724C20.3042 17.4922 20.2553 17.2613 20.3181 17.0209C20.4337 16.5779 20.5484 16.0959 20.6194 15.6578C20.6687 15.3533 20.7843 15.0825 20.8921 14.8514C20.9192 14.7935 20.9452 14.7389 20.9702 14.6866C21.0512 14.5168 21.1207 14.3714 21.1731 14.2166C21.2452 14.004 21.2934 13.8272 21.3428 13.6457C21.3761 13.5235 21.41 13.3991 21.4522 13.2602C21.5502 12.9374 21.6755 12.608 21.9041 12.2536C22.0364 12.0484 22.2423 11.8444 22.444 11.6595C22.5493 11.563 22.6783 11.45 22.8054 11.3388C22.9082 11.2487 23.0098 11.1598 23.0964 11.0817C23.3122 10.887 23.4999 10.7038 23.6356 10.5321C23.7697 10.3624 23.8196 10.245 23.8293 10.1729C23.8263 10.1639 23.8157 10.1369 23.7809 10.089C23.7236 10.0102 23.63 9.91569 23.5031 9.80999C23.2546 9.60295 22.9409 9.40333 22.6851 9.24052C22.68 9.23729 22.6749 9.23407 22.6699 9.23087C22.468 9.10236 22.3421 9.03038 22.2528 8.99138C22.2107 8.973 22.1852 8.96583 22.171 8.96298C22.1591 8.96058 22.1545 8.96106 22.1529 8.96123C22.1444 8.96211 22.1156 8.96702 22.014 9.02003C21.9887 9.03326 21.9526 9.05297 21.9095 9.07654C21.8222 9.12429 21.7059 9.1879 21.5906 9.24567C21.1545 9.46435 20.9325 9.6238 20.75 9.80932C20.5899 9.97214 20.4547 10.1584 20.2417 10.4519C20.1919 10.5206 20.1377 10.5952 20.078 10.6768C19.7686 11.0994 18.9397 12.3717 18.642 12.833C18.6064 12.8883 18.598 12.9171 18.5941 12.9348C18.5877 12.9639 18.5862 12.9923 18.582 13.0845C18.5732 13.2752 18.5534 13.5275 18.3917 13.9521C18.3409 14.0853 18.2989 14.244 18.2688 14.3761C18.2541 14.4407 18.2429 14.4961 18.2354 14.5349C18.2317 14.5543 18.2289 14.5695 18.2272 14.5795L18.2262 14.5847C18.164 15.1139 18.1206 15.3143 18.0495 15.6166L18.0437 15.6412L18.0349 15.6649C17.9775 15.8183 17.9456 15.9084 17.9279 15.9644C17.9255 15.9719 17.9236 15.9783 17.922 15.9838C17.9224 15.9866 17.9228 15.9893 17.9231 15.9916C17.9323 16.057 17.9345 16.1309 17.9261 16.233C17.9082 16.4521 17.7152 16.6161 17.4952 16.5993C17.2752 16.5825 17.1114 16.3912 17.1294 16.1721C17.1318 16.1424 17.1321 16.1247 17.1319 16.1154C17.1319 16.1108 17.1317 16.1082 17.1316 16.1071L17.1314 16.1054C17.1308 16.1012 17.1308 16.1011 17.1307 16.1006C17.1305 16.0999 17.13 16.0982 17.1265 16.0777C17.1224 16.0528 17.1172 16.0151 17.1183 15.968C17.1203 15.8825 17.1424 15.8021 17.1653 15.7295C17.1886 15.6555 17.2245 15.555 17.277 15.4143C17.3387 15.151 17.3761 14.9753 17.4335 14.4853L17.4347 14.4757L17.4363 14.4661L17.8305 14.5295C17.4363 14.4661 17.4363 14.4661 17.4363 14.4661L17.4364 14.4653L17.4366 14.4639L17.4374 14.4594L17.4401 14.4439C17.4425 14.4308 17.4459 14.4123 17.4503 14.3892C17.4591 14.3432 17.4722 14.2788 17.4893 14.2037C17.5228 14.0566 17.5745 13.8568 17.6444 13.6732C17.769 13.3459 17.7775 13.1806 17.7834 13.0521C17.7837 13.0456 17.784 13.0387 17.7843 13.0316C17.7872 12.9642 17.7913 12.8675 17.8135 12.7673C17.8405 12.6452 17.8901 12.5293 17.97 12.4053C18.262 11.9528 19.106 10.6564 19.4328 10.2101C19.484 10.1402 19.5328 10.0728 19.5798 10.0079C19.7955 9.71002 19.974 9.46365 20.1801 9.25404C20.4464 8.98335 20.7522 8.77678 21.2338 8.53532C21.3447 8.47972 21.4203 8.43807 21.4934 8.39783C21.542 8.37105 21.5895 8.34489 21.6455 8.31567C21.7607 8.25553 21.9041 8.18739 22.0737 8.16979C22.2544 8.15104 22.418 8.19308 22.5768 8.26239C22.7283 8.32851 22.8999 8.43069 23.1028 8.55982C23.1123 8.56588 23.122 8.57205 23.1319 8.57832C23.3785 8.73521 23.7294 8.95839 24.0179 9.19875C24.1678 9.32361 24.3171 9.46622 24.4292 9.62037Z" fill="#42370E"/>
<path d="M9.89453 26.79C10.1678 26.9661 10.2659 27.3788 10.2473 27.6765C10.2366 27.8485 10.09 28.3483 10.1491 28.4482" stroke="#42370E" stroke-width="0.881871" stroke-linecap="round"/>
<path fill-rule="evenodd" clip-rule="evenodd" d="M16.4543 29.0711C16.5923 29.243 16.5656 29.4948 16.3948 29.6337C16.387 29.64 16.3791 29.6464 16.3712 29.6529C16.0765 29.8924 15.6918 30.2051 15.289 30.3932C14.7954 30.6236 14.2219 30.6324 13.7126 30.5804C13.2936 30.5376 12.8727 30.4475 12.5284 30.3738C12.4519 30.3575 12.3793 30.3419 12.3112 30.3279C12.0437 30.2726 11.7249 30.0976 11.4666 29.9297C11.1983 29.7554 10.9318 29.5467 10.7647 29.3755C10.5907 29.1973 10.3866 29.0692 10.1371 28.9125C10.073 28.8723 10.006 28.8302 9.93564 28.7849C9.75071 28.6658 9.69683 28.4184 9.81529 28.2323C9.93375 28.0462 10.1797 27.992 10.3646 28.1112C10.4147 28.1434 10.4681 28.1767 10.5238 28.2115C10.78 28.3714 11.0849 28.5616 11.3321 28.8148C11.4448 28.9303 11.6599 29.1028 11.8982 29.2576C12.1464 29.4189 12.3591 29.521 12.4712 29.5441C12.5493 29.5602 12.6291 29.5773 12.7102 29.5946C13.0532 29.6678 13.4214 29.7464 13.793 29.7844C14.2553 29.8316 14.6558 29.8067 14.9543 29.6674C15.2619 29.5238 15.5778 29.2691 15.8951 29.0113C16.066 28.8724 16.3163 28.8992 16.4543 29.0711Z" fill="#42370E"/>
<path d="M7.89318 6.53024L7.67104 8.25211L8.82578 9.54258L7.11417 9.31911L5.83139 10.4808L6.05353 8.7589L4.89879 7.46843L6.6104 7.6919L7.89318 6.53024Z" fill="#F4C005"/>
<path d="M25.3147 21.9295L25.1354 23.319L26.067 24.3603L24.686 24.1801L23.6509 25.1175L23.8302 23.7281L22.8986 22.6868L24.2796 22.867L25.3147 21.9295Z" fill="#F4C005"/>
<path d="M22.8086 4.14453L25.1242 1.43178" stroke="#F4C005" stroke-width="0.866667" stroke-linecap="round"/>
<path d="M23.5195 6.24902L27.0704 6.09648" stroke="#F4C005" stroke-width="0.866667" stroke-linecap="round"/>
<path d="M23.6523 5.00342L25.5343 3.94876" stroke="#F4C005" stroke-width="0.866667" stroke-linecap="round"/>
<ellipse cx="0.597214" cy="0.599343" rx="0.597214" ry="0.599343" transform="matrix(0.884238 0.467036 -0.46268 0.886526 25.2227 15.0264)" fill="#F4C005"/>
<ellipse cx="1.58222" cy="1.58787" rx="1.58222" ry="1.58787" transform="matrix(0.884238 0.467036 -0.46268 0.886526 11.4023 1.15967)" fill="#F4C005"/>
<ellipse cx="0.694838" cy="0.697316" rx="0.694838" ry="0.697316" transform="matrix(0.884238 0.467036 -0.46268 0.886526 18.3789 0.292969)" fill="#F4C005"/>
</g>
<defs>
<clipPath id="clip0_1307_50320">
<rect width="32" height="32" fill="white"/>
</clipPath>
</defs>
</svg>
