<svg width="54" height="54" viewBox="0 0 54 54" fill="none" xmlns="http://www.w3.org/2000/svg">
<circle cx="27" cy="27" r="27" fill="#F4C005"/>
<path d="M20 28.7391C19.4477 28.7391 19 28.2914 19 27.7391V26.2609C19 25.7086 19.4477 25.2609 20 25.2609H34C34.5523 25.2609 35 25.7086 35 26.2609V27.7391C35 28.2914 34.5523 28.7391 34 28.7391H20ZM26.3245 35C25.7722 35 25.3245 34.5523 25.3245 34V20C25.3245 19.4477 25.7722 19 26.3245 19H27.6604C28.2127 19 28.6604 19.4477 28.6604 20V34C28.6604 34.5523 28.2127 35 27.6604 35H26.3245Z" fill="#877538"/>
</svg>
