<svg width="75" height="75" viewBox="0 0 75 75" fill="none" xmlns="http://www.w3.org/2000/svg">
<rect x="9" y="9" width="56" height="56" rx="28" fill="#F4C005"/>
<path d="M29.7188 38.7188C29.1665 38.7188 28.7188 38.271 28.7188 37.7188V36.2813C28.7188 35.729 29.1665 35.2812 29.7188 35.2812H44.2812C44.8335 35.2812 45.2812 35.729 45.2812 36.2812V37.7187C45.2812 38.271 44.8335 38.7188 44.2812 38.7188H29.7188ZM36.2656 44.9062C35.7133 44.9062 35.2656 44.4585 35.2656 43.9062V30.0938C35.2656 29.5415 35.7133 29.0938 36.2656 29.0938H37.7188C38.271 29.0938 38.7188 29.5415 38.7188 30.0938V43.9062C38.7188 44.4585 38.271 44.9062 37.7187 44.9062H36.2656Z" fill="#F4C005"/>
</svg>
